<?xml version="1.0" standalone="no"?>
<!DOCTYPE svg PUBLIC "-//W3C//DTD SVG 20010904//EN"
 "http://www.w3.org/TR/2001/REC-SVG-20010904/DTD/svg10.dtd">
<svg version="1.0" xmlns="http://www.w3.org/2000/svg"
 width="1847.000000pt" height="834.000000pt" viewBox="0 0 1847.000000 834.000000"
 preserveAspectRatio="xMidYMid meet">

<g transform="translate(0.000000,834.000000) scale(0.100000,-0.100000)"
fill="#000000" stroke="none">
<path d="M605 7956 c-28 -28 -40 -95 -31 -169 7 -66 33 -101 76 -105 59 -6
100 33 100 94 0 22 -4 25 -27 22 -21 -2 -29 -9 -31 -28 -5 -34 -16 -43 -41
-35 -19 6 -21 14 -21 89 0 62 4 87 15 96 23 19 45 4 45 -30 0 -27 3 -30 31
-30 31 0 31 1 26 38 -12 74 -93 107 -142 58z"/>
<path d="M825 7969 c-7 -10 -65 -264 -65 -281 0 -5 11 -8 24 -8 15 0 26 7 29
20 4 15 14 20 37 20 23 0 33 -5 37 -20 3 -13 14 -20 29 -20 13 0 24 3 24 8 0
14 -60 274 -66 283 -7 13 -41 11 -49 -2z m39 -126 c10 -62 8 -73 -14 -73 -12
0 -20 7 -20 18 0 34 13 92 20 92 4 0 10 -17 14 -37z"/>
<path d="M967 7973 c-4 -3 -7 -71 -7 -150 l0 -143 25 0 c25 0 25 1 26 93 l1
92 17 -70 c20 -84 26 -95 51 -95 18 0 39 47 40 90 1 8 7 29 15 45 12 27 13 21
8 -62 l-6 -93 27 0 26 0 0 151 0 150 -32 -3 c-33 -3 -33 -4 -55 -91 -12 -49
-23 -91 -26 -94 -3 -2 -15 39 -27 91 -22 92 -24 96 -50 96 -14 0 -30 -3 -33
-7z"/>
<path d="M1550 7855 c0 -120 1 -127 25 -150 30 -31 83 -33 116 -6 23 18 24 25
24 148 0 125 -1 128 -22 131 -23 3 -23 2 -23 -111 0 -92 -3 -117 -16 -128 -11
-9 -20 -10 -32 -2 -14 8 -18 32 -22 124 -5 109 -6 114 -27 117 -23 3 -23 2
-23 -123z"/>
<path d="M1757 7974 c-4 -4 -7 -72 -7 -151 l0 -143 25 0 c22 0 24 4 27 57 3
56 4 58 33 63 21 4 31 11 33 28 3 17 -2 22 -20 22 -34 0 -50 14 -46 41 2 19
11 25 38 29 29 4 35 9 35 30 0 23 -4 25 -55 28 -31 2 -59 0 -63 -4z"/>
<path d="M1907 7974 c-4 -4 -7 -72 -7 -151 l0 -143 70 0 70 0 0 30 c0 29 -2
30 -45 30 l-44 0 -3 117 c-2 97 -6 118 -18 121 -9 1 -19 0 -23 -4z"/>
<path d="M2125 7969 c-6 -9 -65 -270 -65 -286 0 -1 11 -3 24 -3 15 0 26 7 29
20 4 15 14 20 37 20 23 0 33 -5 37 -20 4 -13 14 -20 30 -20 23 0 24 3 18 38
-3 20 -18 87 -33 147 -23 95 -30 110 -49 113 -11 2 -24 -2 -28 -9z m44 -171
c1 -22 -4 -28 -19 -28 -23 0 -25 17 -8 75 l12 40 7 -30 c3 -16 7 -42 8 -57z"/>
<path d="M2285 7955 c-23 -22 -25 -31 -25 -123 0 -85 3 -103 21 -126 21 -26
65 -35 104 -20 23 9 45 57 45 99 0 34 -1 35 -36 35 l-37 0 7 -40 c5 -31 3 -42
-9 -46 -32 -13 -45 15 -45 96 0 56 4 81 15 90 23 19 45 4 45 -30 0 -27 3 -30
30 -30 27 0 30 3 30 31 0 20 -10 40 -29 60 -38 37 -82 39 -116 4z"/>
<path d="M2467 7973 c-4 -3 -7 -71 -7 -150 l0 -143 65 0 65 0 0 30 c0 28 -2
30 -40 30 -38 0 -40 2 -40 30 0 28 3 30 35 30 31 0 35 3 35 25 0 18 -5 25 -19
25 -37 0 -51 12 -51 41 0 27 3 29 40 29 38 0 40 2 40 30 0 30 0 30 -58 30 -32
0 -62 -3 -65 -7z"/>
<path d="M15810 7856 c0 -19 -4 -22 -25 -19 -32 7 -54 -34 -37 -71 9 -21 18
-24 56 -24 l46 0 0 69 c0 62 -2 69 -20 69 -14 0 -20 -7 -20 -24z m0 -66 c0
-11 -7 -20 -15 -20 -8 0 -15 9 -15 20 0 11 7 20 15 20 8 0 15 -9 15 -20z"/>
<path d="M17050 7860 c0 -13 -7 -20 -18 -20 -26 0 -42 -20 -42 -51 0 -34 16
-46 63 -47 l37 -1 0 69 c0 63 -2 70 -20 70 -13 0 -20 -7 -20 -20z m0 -70 c0
-21 -15 -27 -25 -10 -7 12 2 30 16 30 5 0 9 -9 9 -20z"/>
<path d="M17920 7811 l0 -70 40 1 c48 0 62 16 58 60 -3 29 -7 33 -30 33 -23
-1 -28 4 -28 22 0 16 -6 23 -20 23 -18 0 -20 -7 -20 -69z m65 -21 c0 -7 -6
-15 -12 -17 -8 -3 -13 4 -13 17 0 13 5 20 13 18 6 -3 12 -11 12 -18z"/>
<path d="M14200 7805 c0 -58 2 -65 20 -65 15 0 20 7 20 25 0 20 5 25 25 25 20
0 25 -5 25 -25 0 -16 6 -25 15 -25 12 0 15 14 15 65 0 51 -3 65 -15 65 -9 0
-15 -9 -15 -25 0 -20 -5 -25 -25 -25 -20 0 -25 5 -25 25 0 18 -5 25 -20 25
-18 0 -20 -7 -20 -65z"/>
<path d="M15320 7805 l0 -65 40 0 c29 0 40 4 40 15 0 9 -9 15 -25 15 -14 0
-25 5 -25 10 0 6 9 10 20 10 11 0 20 7 20 15 0 8 -9 15 -20 15 -11 0 -20 5
-20 10 0 6 11 10 25 10 16 0 25 6 25 15 0 11 -11 15 -40 15 l-40 0 0 -65z"/>
<path d="M16540 7805 l0 -65 38 0 c48 0 70 16 78 56 9 44 -22 74 -76 74 l-40
0 0 -65z m73 13 c8 -12 7 -21 -2 -32 -23 -28 -41 -19 -41 20 0 28 4 35 16 32
9 -2 22 -10 27 -20z"/>
<path d="M17809 7843 c-36 -92 -39 -103 -23 -103 8 0 23 6 34 12 16 10 24 10
40 0 44 -27 50 -16 27 53 -18 55 -25 65 -44 65 -16 0 -27 -8 -34 -27z m41 -39
c0 -8 -4 -14 -10 -14 -5 0 -10 9 -10 21 0 11 5 17 10 14 6 -3 10 -13 10 -21z"/>
<path d="M18285 7854 c-17 -17 -12 -76 8 -101 13 -18 47 -16 47 2 0 8 -4 15
-10 15 -5 0 -10 9 -10 20 0 11 5 20 10 20 6 0 10 7 10 15 0 8 -4 15 -10 15 -5
0 -10 7 -10 15 0 20 -14 19 -35 -1z"/>
<path d="M14357 7822 c-22 -24 -21 -45 1 -65 35 -32 92 -11 92 33 0 45 -62 66
-93 32z m53 -32 c0 -11 -7 -20 -15 -20 -8 0 -15 9 -15 20 0 11 7 20 15 20 8 0
15 -9 15 -20z"/>
<path d="M14470 7789 c0 -37 4 -49 15 -49 10 0 15 11 15 35 0 24 5 35 15 35
10 0 15 -11 15 -35 0 -46 27 -49 32 -3 4 46 28 49 28 4 0 -25 4 -36 15 -36 11
0 15 12 15 45 0 49 -18 67 -44 46 -8 -7 -17 -8 -20 -3 -3 5 -24 9 -46 9 l-40
0 0 -48z"/>
<path d="M14656 7824 c-34 -33 -6 -88 42 -82 36 4 39 26 5 31 -28 4 -27 4 4 6
27 1 30 4 25 24 -9 39 -48 50 -76 21z m44 -14 c0 -5 -4 -10 -10 -10 -5 0 -10
5 -10 10 0 6 5 10 10 10 6 0 10 -4 10 -10z"/>
<path d="M15420 7790 c0 -38 4 -50 15 -50 10 0 15 11 15 35 0 24 5 35 15 35
10 0 15 -11 15 -35 0 -24 5 -35 15 -35 11 0 15 12 15 45 0 49 -18 67 -45 45
-10 -9 -15 -9 -15 -1 0 6 -7 11 -15 11 -11 0 -15 -12 -15 -50z"/>
<path d="M15548 7829 c-25 -14 -24 -65 1 -79 28 -15 61 -12 61 4 0 8 -10 16
-22 18 -13 2 -23 10 -23 18 0 8 10 16 23 18 12 2 22 10 22 18 0 16 -37 18 -62
3z"/>
<path d="M15636 7824 c-21 -20 -20 -48 0 -69 24 -23 66 -15 83 17 14 24 14 28
-3 47 -23 25 -58 27 -80 5z m54 -34 c0 -11 -7 -20 -15 -20 -8 0 -15 9 -15 20
0 11 7 20 15 20 8 0 15 -9 15 -20z"/>
<path d="M15876 7824 c-34 -33 -6 -88 42 -82 36 4 39 26 5 31 -28 4 -27 4 4 6
27 1 30 4 25 24 -9 39 -48 50 -76 21z m44 -14 c0 -5 -4 -10 -10 -10 -5 0 -10
5 -10 10 0 6 5 10 10 10 6 0 10 -4 10 -10z"/>
<path d="M16686 7824 c-34 -33 -6 -88 42 -82 36 4 39 26 5 31 -28 4 -27 4 4 6
27 1 30 4 25 24 -9 39 -48 50 -76 21z m44 -14 c0 -5 -4 -10 -10 -10 -5 0 -10
5 -10 10 0 6 5 10 10 10 6 0 10 -4 10 -10z"/>
<path d="M16798 7829 c-21 -12 -24 -59 -6 -77 17 -17 68 -15 68 2 0 8 -10 16
-22 18 -13 2 -23 10 -23 18 0 8 10 16 23 18 12 2 22 10 22 18 0 16 -37 18 -62
3z"/>
<path d="M16886 7827 c-28 -20 -18 -69 17 -81 36 -13 61 2 65 38 6 49 -40 74
-82 43z m50 -28 c10 -17 -13 -36 -27 -22 -12 12 -4 33 11 33 5 0 12 -5 16 -11z"/>
<path d="M17128 7829 c-21 -12 -24 -59 -6 -77 17 -17 68 -15 68 2 0 8 -10 17
-22 19 -20 4 -19 4 5 6 19 1 27 6 27 19 0 37 -36 52 -72 31z m42 -19 c0 -5 -7
-10 -16 -10 -8 0 -12 5 -9 10 3 6 10 10 16 10 5 0 9 -4 9 -10z"/>
<path d="M18051 7826 c-17 -20 -10 -67 11 -80 29 -18 72 4 76 39 6 47 -58 76
-87 41z m55 -27 c10 -17 -13 -36 -27 -22 -12 12 -4 33 11 33 5 0 12 -5 16 -11z"/>
<path d="M18162 7793 l3 -48 48 -2 47 -2 0 49 c0 43 -3 50 -20 50 -16 0 -20
-7 -20 -35 0 -19 -4 -35 -10 -35 -5 0 -10 16 -10 35 0 29 -4 35 -21 35 -18 0
-20 -5 -17 -47z"/>
<path d="M16563 5205 c-21 -15 -36 -62 -23 -70 4 -3 16 7 25 21 15 23 22 26
61 21 49 -5 56 4 22 27 -28 20 -57 20 -85 1z"/>
<path d="M13823 5142 c-62 -22 -113 -60 -150 -110 -15 -20 -30 -41 -34 -45 -3
-5 -26 -3 -50 3 -56 15 -117 5 -167 -27 -55 -36 -84 -91 -87 -166 l-2 -61 -54
-11 c-63 -12 -108 -43 -146 -99 -22 -33 -28 -55 -31 -113 l-4 -73 666 0 c625
0 667 1 674 18 4 9 7 55 7 102 -1 84 -9 114 -44 154 -15 17 -16 16 -21 -20
l-5 -39 -200 -3 c-179 -2 -201 -1 -212 15 -9 11 -13 53 -13 120 0 90 3 106 20
123 11 11 25 20 30 20 6 0 10 33 10 79 0 44 4 91 10 105 12 33 3 38 -79 43
-47 2 -81 -2 -118 -15z"/>
<path d="M14071 5078 c-6 -17 -11 -57 -11 -89 l0 -59 76 0 c73 0 75 1 68 22
-12 40 -65 117 -94 138 l-28 20 -11 -32z"/>
<path d="M16731 4984 c-41 -95 -145 -147 -248 -124 -47 11 -59 6 -108 -46 -5
-6 -69 -66 -142 -133 l-131 -121 -44 10 c-56 12 -60 12 -56 -2 3 -9 77 -37
100 -38 4 0 82 70 172 154 l165 155 69 -6 c44 -4 83 -1 107 7 48 16 119 86
134 133 21 61 8 69 -18 11z"/>
<path d="M14143 4834 c-3 -9 -1 -25 5 -35 7 -10 12 -29 12 -41 0 -18 5 -13 21
20 12 23 19 49 15 57 -7 20 -45 19 -53 -1z"/>
<path d="M820 4660 l0 -140 25 0 c24 0 25 3 25 60 l0 60 65 0 65 0 0 -60 c0
-57 1 -60 25 -60 l25 0 0 140 0 140 -25 0 c-24 0 -25 -2 -25 -65 l0 -65 -65 0
-65 0 0 65 c0 63 -1 65 -25 65 l-25 0 0 -140z"/>
<path d="M1110 4660 l0 -140 25 0 25 0 0 140 0 140 -25 0 -25 0 0 -140z"/>
<path d="M1220 4660 l0 -140 65 0 c117 0 175 46 175 140 0 94 -58 140 -175
140 l-65 0 0 -140z m161 84 c27 -24 39 -77 28 -118 -13 -47 -42 -69 -92 -70
l-42 -1 -3 94 c-1 52 0 101 3 109 7 19 79 10 106 -14z"/>
<path d="M1500 4660 l0 -140 85 0 c68 0 85 3 85 15 0 10 -15 15 -57 17 l-58 3
-3 43 -3 42 50 0 c38 0 51 4 51 14 0 11 -14 16 -47 18 l-48 3 0 45 0 45 58 3
c42 2 57 7 57 17 0 12 -17 15 -85 15 l-85 0 0 -140z"/>
<path d="M1810 4716 c44 -74 50 -91 50 -140 0 -53 1 -56 25 -56 24 0 25 3 25
56 0 49 6 66 50 141 l50 84 -28 -3 c-22 -2 -33 -15 -58 -61 -17 -32 -35 -59
-39 -59 -4 0 -22 27 -39 59 -25 47 -36 59 -59 61 l-27 3 50 -85z"/>
<path d="M2084 4786 c-52 -23 -74 -61 -74 -126 0 -44 5 -64 22 -85 60 -77 184
-69 230 16 64 120 -53 249 -178 195z m101 -32 c22 -9 45 -57 45 -94 0 -89 -82
-132 -146 -76 -24 20 -28 31 -28 76 0 45 4 56 28 76 26 23 68 30 101 18z"/>
<path d="M2320 4695 c0 -102 1 -106 29 -137 26 -29 35 -33 81 -33 46 0 55 4
81 33 28 31 29 35 29 137 l0 105 -25 0 -25 0 0 -103 c0 -114 -10 -137 -62
-137 -48 0 -63 32 -66 141 -4 90 -6 99 -23 99 -17 0 -19 -8 -19 -105z"/>
<path d="M2600 4660 c0 -133 1 -140 20 -140 18 0 20 7 20 55 0 48 2 55 20 55
13 0 32 -19 56 -55 27 -41 43 -55 60 -55 13 0 24 2 24 5 0 3 -16 29 -36 59
l-35 54 25 25 c27 27 33 65 16 97 -13 24 -62 40 -121 40 l-49 0 0 -140z m104
100 c36 -13 36 -63 1 -86 -38 -25 -59 -15 -63 30 -6 65 7 77 62 56z"/>
<path d="M2890 4785 c0 -11 11 -15 40 -15 l40 0 0 -125 0 -125 25 0 25 0 0
125 0 125 40 0 c29 0 40 4 40 15 0 12 -18 15 -105 15 -87 0 -105 -3 -105 -15z"/>
<path d="M3140 4660 l0 -140 85 0 c68 0 85 3 85 15 0 10 -16 15 -62 17 l-63 3
-3 43 -3 42 50 0 c38 0 51 4 51 14 0 11 -14 16 -47 18 l-48 3 0 45 0 45 63 3
c46 2 62 7 62 17 0 12 -17 15 -85 15 l-85 0 0 -140z"/>
<path d="M3351 4763 c12 -21 31 -50 41 -65 10 -14 18 -29 18 -33 0 -5 -18 -36
-40 -71 -22 -35 -40 -66 -40 -69 0 -3 10 -5 23 -5 16 0 31 14 55 55 18 30 35
55 37 55 3 0 20 -25 40 -55 27 -43 40 -55 61 -55 l26 0 -23 38 c-13 20 -33 52
-45 71 -13 19 -20 39 -17 45 4 6 24 37 45 69 l39 57 -26 0 c-19 0 -33 -12 -57
-50 -18 -27 -36 -50 -39 -50 -3 0 -20 23 -37 50 -25 39 -37 50 -57 50 l-27 0
23 -37z"/>
<path d="M3580 4785 c0 -11 11 -15 40 -15 l40 0 0 -125 0 -125 25 0 24 0 3
123 3 122 38 3 c24 2 37 8 37 18 0 11 -20 14 -105 14 -87 0 -105 -3 -105 -15z"/>
<path d="M3900 4660 c0 -133 1 -140 20 -140 19 0 20 7 20 103 l0 102 43 -80
c58 -108 70 -109 122 -8 l40 78 3 -97 c2 -90 4 -98 22 -98 19 0 20 8 20 140 0
139 0 140 -22 140 -19 0 -32 -18 -72 -95 l-50 -94 -50 94 c-41 77 -55 95 -73
95 -23 0 -23 -1 -23 -140z"/>
<path d="M4250 4660 l0 -140 85 0 c69 0 85 3 85 15 0 12 -13 15 -60 15 l-60 0
0 45 0 45 45 0 c33 0 45 4 45 15 0 11 -12 15 -45 15 l-45 0 0 50 0 50 60 0
c47 0 60 3 60 15 0 12 -16 15 -85 15 l-85 0 0 -140z"/>
<path d="M4492 4784 c-60 -42 -47 -113 24 -140 52 -20 68 -36 59 -62 -8 -27
-43 -34 -79 -16 -26 13 -32 13 -45 -1 -13 -13 -11 -16 22 -30 46 -19 70 -19
107 0 32 16 44 45 38 91 -2 24 -13 34 -60 57 -41 19 -58 33 -58 47 0 29 32 42
70 28 26 -8 34 -8 41 3 6 10 1 17 -19 26 -38 17 -74 16 -100 -3z"/>
<path d="M4692 4784 c-60 -42 -47 -113 24 -140 52 -20 68 -36 59 -62 -8 -27
-43 -34 -79 -16 -26 13 -32 13 -45 -1 -13 -13 -11 -16 22 -30 46 -19 70 -19
107 0 32 16 44 45 38 91 -2 24 -13 34 -60 57 -41 19 -58 33 -58 47 0 29 32 42
70 28 26 -8 34 -8 41 3 6 10 1 17 -19 26 -38 17 -74 16 -100 -3z"/>
<path d="M4895 4668 c-27 -72 -51 -135 -53 -140 -2 -4 8 -8 21 -8 20 0 28 7
37 35 11 35 12 35 69 35 56 0 58 -1 74 -35 11 -24 23 -35 38 -35 16 0 20 4 15
18 -90 239 -101 262 -126 262 -23 0 -29 -11 -75 -132z m98 25 c24 -68 23 -73
-23 -73 -22 0 -40 3 -40 7 0 16 34 113 40 113 3 0 14 -21 23 -47z"/>
<path d="M5181 4782 c-52 -26 -75 -63 -75 -121 0 -102 85 -160 192 -132 l42
12 0 59 0 60 -40 0 c-29 0 -40 -4 -40 -15 0 -8 9 -15 20 -15 16 0 20 -7 20
-30 0 -55 -74 -63 -122 -13 -18 19 -23 35 -22 75 0 43 5 55 29 75 22 20 36 24
64 19 75 -11 84 -11 88 2 6 15 -55 42 -94 42 -15 0 -43 -8 -62 -18z"/>
<path d="M5390 4660 l0 -140 85 0 c68 0 85 3 85 15 0 10 -15 15 -57 17 l-58 3
-3 43 -3 42 50 0 c38 0 51 4 51 14 0 11 -14 16 -47 18 l-48 3 0 45 0 45 58 3
c42 2 57 7 57 17 0 12 -17 15 -85 15 l-85 0 0 -140z"/>
<path d="M5690 4660 c0 -133 1 -140 20 -140 19 0 20 7 20 140 0 133 -1 140
-20 140 -19 0 -20 -7 -20 -140z"/>
<path d="M5800 4660 c0 -132 1 -140 20 -140 18 0 20 8 22 95 l3 94 74 -94 c46
-60 80 -95 92 -95 18 0 19 10 19 140 0 132 -1 140 -20 140 -18 0 -20 -8 -22
-97 l-3 -97 -78 97 c-43 53 -84 97 -92 97 -13 0 -15 -24 -15 -140z"/>
<path d="M11700 4573 c-23 -9 -46 -35 -65 -72 -15 -30 -16 -40 -5 -70 26 -76
89 -111 158 -88 93 31 110 167 28 221 -25 15 -86 20 -116 9z m130 -71 c0 -12
-52 -84 -74 -101 -15 -13 -21 -10 -51 19 -24 23 -32 37 -25 44 7 7 17 7 30 -2
23 -14 44 -6 74 27 19 21 46 28 46 13z"/>
<path d="M2737 4308 c-56 -135 -129 -340 -123 -345 18 -19 43 26 107 192 38
99 69 181 69 183 0 1 -9 2 -20 2 -13 0 -24 -11 -33 -32z"/>
<path d="M800 4321 c0 -6 29 -83 64 -173 61 -153 67 -163 93 -166 27 -3 29 1
93 164 36 92 67 171 69 176 2 5 -12 8 -29 6 -32 -3 -34 -6 -77 -123 -25 -66
-47 -127 -50 -135 -2 -8 -26 41 -51 110 -26 69 -51 131 -55 138 -9 14 -57 17
-57 3z"/>
<path d="M1170 4155 l0 -175 30 0 30 0 0 175 0 175 -30 0 -30 0 0 -175z"/>
<path d="M1310 4155 l0 -177 95 4 c75 3 100 8 122 24 103 77 103 221 0 298
-22 16 -47 21 -122 24 l-95 4 0 -177z m170 117 c44 -21 60 -53 60 -117 0 -27
-6 -61 -13 -75 -16 -32 -72 -60 -119 -60 l-38 0 0 135 0 135 38 0 c20 0 53 -8
72 -18z"/>
<path d="M1660 4155 l0 -175 105 0 105 0 0 25 c0 24 -2 25 -75 25 l-75 0 0 50
0 50 60 0 c53 0 60 2 60 20 0 18 -7 20 -60 20 l-60 0 0 60 0 60 75 0 c68 0 75
2 75 20 0 19 -7 20 -105 20 l-105 0 0 -175z"/>
<path d="M2000 4308 c-121 -61 -121 -245 0 -305 56 -29 105 -29 160 0 118 62
118 242 0 304 -55 29 -104 29 -160 1z m152 -67 c30 -27 33 -35 33 -86 0 -51
-3 -59 -33 -86 -52 -47 -138 -35 -168 22 -17 35 -18 96 0 128 32 58 116 68
168 22z"/>
<path d="M2344 4314 c-35 -17 -54 -51 -54 -92 1 -40 22 -61 86 -87 68 -28 82
-46 60 -81 -20 -29 -69 -33 -105 -8 -21 15 -24 15 -39 1 -21 -21 -3 -43 48
-58 83 -25 160 23 160 99 -1 50 -18 69 -86 95 -45 18 -60 29 -62 46 -7 46 37
65 93 39 22 -10 28 -9 36 3 14 23 11 29 -26 45 -44 18 -72 18 -111 -2z"/>
<path d="M2920 4155 l0 -175 30 0 30 0 0 175 0 175 -30 0 -30 0 0 -175z"/>
<path d="M3060 4156 l0 -176 25 0 25 0 0 122 c0 77 4 118 9 113 6 -6 32 -50
59 -100 34 -63 54 -90 67 -90 13 0 34 29 71 100 l54 100 0 -122 0 -123 30 0
30 0 0 176 0 175 -32 -3 c-31 -3 -37 -10 -90 -113 -31 -60 -59 -109 -63 -108
-4 1 -33 50 -65 110 -52 100 -59 108 -88 111 l-32 3 0 -175z"/>
<path d="M3596 4321 c-9 -14 -126 -323 -126 -332 0 -5 11 -9 25 -9 21 0 29 9
45 45 l19 45 69 0 69 0 17 -45 c16 -40 21 -45 48 -45 25 0 29 3 23 18 -4 9
-31 80 -60 157 -29 77 -57 148 -60 158 -7 18 -59 24 -69 8z m62 -137 c12 -34
22 -64 22 -68 0 -3 -25 -6 -55 -6 l-54 0 27 75 c15 41 29 71 33 67 3 -4 15
-34 27 -68z"/>
<path d="M3907 4316 c-50 -19 -67 -34 -88 -81 -41 -88 -9 -189 72 -233 36 -19
54 -23 99 -19 30 3 67 11 83 18 26 12 27 16 27 81 l0 68 -55 0 c-48 0 -55 -2
-55 -20 0 -15 7 -20 25 -20 22 0 25 -4 25 -35 0 -29 -5 -37 -27 -46 -91 -34
-175 59 -144 161 17 57 55 83 111 76 101 -12 104 -12 108 6 8 41 -110 71 -181
44z"/>
<path d="M4160 4155 l0 -175 105 0 105 0 0 25 c0 24 -2 25 -75 25 l-75 0 0 50
0 50 60 0 c53 0 60 2 60 20 0 18 -7 20 -60 20 l-60 0 0 60 0 60 75 0 c68 0 75
2 75 20 0 19 -7 20 -105 20 l-105 0 0 -175z"/>
<path d="M4464 4311 c-51 -31 -64 -100 -26 -143 8 -10 31 -22 51 -29 55 -17
81 -37 81 -62 0 -48 -52 -62 -112 -31 -30 15 -32 15 -45 -2 -12 -16 -11 -21 9
-36 35 -26 98 -33 142 -14 62 26 84 117 38 159 -9 9 -39 24 -66 34 -57 21 -76
44 -60 71 13 21 65 27 94 12 16 -9 25 -8 36 1 22 18 17 29 -21 45 -47 19 -84
18 -121 -5z"/>
<path d="M11934 3786 l-44 -43 0 -104 c0 -57 -1 -356 -3 -664 -2 -625 5 -565
-71 -551 -32 6 -35 5 -46 -29 -32 -97 -172 -102 -201 -6 l-11 38 -41 -9 c-50
-11 -100 -41 -127 -75 -26 -34 -25 -39 7 -48 15 -3 48 -21 73 -40 74 -54 159
-81 174 -56 3 5 18 12 33 16 14 3 50 22 78 40 78 52 122 68 178 62 27 -2 56
-11 65 -20 23 -23 10 -30 -24 -12 -54 28 -129 10 -207 -49 -43 -33 -122 -66
-157 -66 -38 0 -106 30 -153 68 -40 32 -93 50 -107 36 -5 -5 -15 -33 -24 -61
-14 -51 -14 -53 5 -53 25 0 79 -27 79 -40 0 -13 -4 -13 -44 6 -40 19 -66 13
-66 -15 0 -17 8 -20 53 -23 50 -3 52 -4 55 -34 2 -25 11 -34 48 -52 56 -27
108 -28 167 -2 63 28 127 35 151 17 18 -13 15 -14 -35 -14 -35 0 -70 -7 -101
-21 -64 -30 -131 -29 -187 3 -24 14 -45 24 -46 23 -1 -2 -6 -44 -9 -94 l-7
-91 55 5 c46 4 62 0 100 -22 34 -20 52 -24 78 -20 52 10 181 44 186 48 2 3 7
53 9 113 4 62 11 111 17 115 6 4 50 8 99 8 l87 0 0 -107 c-1 -60 -5 -139 -10
-178 -8 -66 -11 -72 -55 -112 -26 -24 -55 -43 -65 -43 -11 0 -22 -5 -25 -10
-4 -6 6 -10 24 -10 16 0 33 -5 37 -11 5 -8 -7 -9 -40 -5 -25 3 -66 9 -91 12
-29 4 -71 0 -116 -11 -94 -23 -188 -17 -257 18 l-51 26 -3 -27 c-2 -20 -9 -28
-27 -30 -26 -4 -41 12 -41 46 l0 22 -385 0 -385 0 0 -26 c0 -15 -34 -103 -75
-196 -41 -93 -78 -180 -81 -194 l-6 -24 2725 0 2725 0 41 22 c52 28 87 72 102
132 18 71 12 76 -81 76 l-80 0 0 1140 c0 1239 4 1165 -55 1220 l-27 25 -1870
3 -1870 2 -44 -44z m3684 -1183 l2 -1053 -1780 0 -1780 0 0 1043 c0 799 3
1046 12 1055 9 9 413 11 1778 10 l1765 -3 3 -1052z m-3696 -479 c21 -11 46
-15 75 -11 51 5 55 -12 5 -27 -24 -7 -40 -4 -74 13 -25 11 -57 21 -72 21 -15
0 -25 4 -21 10 9 15 52 12 87 -6z m-832 -539 c7 -14 11 -27 9 -29 -4 -4 -312
-36 -346 -36 -17 0 -16 12 1 55 l15 35 154 0 c154 0 154 0 167 -25z"/>
<path d="M12140 3595 c-16 -19 -5 -47 17 -43 11 2 18 12 18 27 0 29 -17 37
-35 16z"/>
<path d="M12221 3596 c-13 -16 -4 -46 14 -46 7 0 18 7 25 15 10 12 10 18 0 30
-15 19 -24 19 -39 1z"/>
<path d="M12310 3595 c-15 -18 -6 -45 13 -45 8 0 20 7 27 15 10 12 10 18 0 30
-16 19 -24 19 -40 0z"/>
<path d="M13829 3408 c-8 -19 -23 -34 -34 -36 -46 -7 -49 -11 -25 -37 18 -19
21 -31 16 -59 -8 -39 -3 -42 34 -22 21 12 30 12 58 0 l33 -13 -7 35 c-5 29 -3
37 21 56 29 23 21 38 -22 38 -16 0 -27 10 -37 35 -8 19 -17 35 -19 35 -2 0
-10 -15 -18 -32z"/>
<path d="M13465 3296 c-14 -21 -30 -33 -54 -36 l-33 -5 27 -25 c22 -21 25 -30
19 -63 l-6 -39 31 18 c29 17 32 17 66 1 l35 -17 -6 38 c-5 30 -2 41 15 56 28
26 26 36 -7 36 -21 0 -33 8 -48 34 l-19 33 -20 -31z"/>
<path d="M14203 3292 c-11 -19 -26 -32 -38 -32 -40 -1 -47 -15 -20 -40 21 -20
24 -29 19 -58 -4 -19 -3 -33 2 -30 5 2 21 10 36 17 22 12 29 11 49 -3 34 -24
41 -20 33 20 -5 28 -2 40 16 59 l23 25 -32 6 c-22 5 -39 17 -51 37 l-19 31
-18 -32z"/>
<path d="M13813 3100 c-58 -12 -94 -32 -136 -79 -52 -57 -67 -119 -67 -272 l0
-128 -27 -3 c-45 -5 -53 -35 -53 -208 0 -125 3 -160 16 -178 15 -22 16 -22
319 -22 291 0 305 1 315 19 6 11 10 92 10 190 0 184 -5 201 -56 201 l-24 0 0
146 c0 135 -2 149 -26 200 -47 100 -160 155 -271 134z m126 -88 c19 -9 48 -34
65 -55 l31 -39 3 -149 4 -149 -175 0 c-150 0 -176 2 -181 16 -10 27 -7 217 5
259 6 22 20 52 31 68 44 61 148 85 217 49z m-369 -612 c0 -100 -4 -160 -10
-160 -6 0 -10 60 -10 160 0 100 4 160 10 160 6 0 10 -60 10 -160z m249 111
c-33 -34 -36 -51 -13 -86 19 -29 9 -33 -18 -8 -28 25 -23 70 12 104 16 17 34
28 39 25 5 -4 -4 -19 -20 -35z"/>
<path d="M14466 3042 c-12 -23 -25 -33 -51 -38 -41 -7 -43 -13 -11 -42 21 -17
24 -27 19 -57 l-6 -36 31 18 c27 15 33 16 58 3 16 -8 32 -16 37 -18 4 -2 5 14
1 35 -5 31 -2 42 15 57 29 26 27 33 -15 40 -27 6 -38 14 -49 38 l-13 32 -16
-32z"/>
<path d="M13192 3021 c-11 -16 -34 -31 -51 -34 l-31 -6 25 -25 c20 -20 23 -31
18 -62 l-6 -37 31 19 c30 17 33 17 61 1 39 -23 41 -22 34 18 -4 28 -1 41 16
59 24 25 19 36 -16 36 -15 0 -30 10 -41 30 l-19 30 -21 -29z"/>
<path d="M13101 2672 c-15 -36 -37 -52 -72 -52 -22 0 -22 -1 6 -30 26 -27 28
-33 18 -65 l-11 -34 30 15 c30 15 53 15 92 -1 17 -8 19 -5 12 25 -5 28 -2 38
19 60 l26 27 -39 7 c-34 5 -41 11 -53 43 l-15 38 -13 -33z"/>
<path d="M14570 2682 c0 -23 -48 -62 -76 -62 l-28 0 28 -29 c24 -25 27 -34 21
-62 -7 -29 -5 -31 11 -24 24 11 74 11 96 1 16 -7 17 -4 12 23 -6 26 -2 37 20
60 l27 29 -35 6 c-24 5 -41 16 -55 39 -11 18 -21 26 -21 19z"/>
<path d="M13187 2290 c-15 -25 -25 -30 -54 -30 l-37 0 27 -28 c18 -19 27 -39
27 -60 0 -36 0 -36 33 -21 19 9 31 7 57 -6 l33 -17 -6 37 c-5 33 -2 41 24 66
l31 29 -36 0 c-34 0 -43 6 -69 43 -11 16 -14 15 -30 -13z"/>
<path d="M14467 2294 c-12 -24 -26 -33 -53 -39 l-36 -6 27 -29 c24 -25 26 -34
21 -65 -7 -37 -7 -37 16 -21 29 21 52 20 85 -1 l26 -17 -7 38 c-6 32 -4 42 16
63 19 20 20 25 8 33 -8 5 -24 10 -36 10 -13 0 -26 11 -36 32 l-15 33 -16 -31z"/>
<path d="M13468 2031 c-12 -21 -27 -32 -53 -37 l-36 -6 27 -29 c20 -21 25 -35
22 -59 -4 -25 -2 -30 11 -24 22 10 72 10 95 -1 17 -8 19 -5 12 25 -5 28 -2 38
20 61 l25 27 -35 6 c-26 5 -40 15 -51 36 -9 17 -17 30 -18 30 -1 0 -10 -13
-19 -29z"/>
<path d="M14190 2030 c-10 -24 -20 -31 -53 -37 l-40 -6 28 -23 c24 -19 29 -30
27 -58 l-3 -35 32 11 c24 8 38 7 63 -4 l31 -15 -3 39 c-3 30 1 45 17 62 l22
24 -37 6 c-28 6 -39 14 -47 37 -14 37 -21 37 -37 -1z"/>
<path d="M13818 1920 c-10 -17 -28 -31 -48 -35 l-32 -7 22 -23 c17 -18 21 -33
18 -59 -4 -39 -1 -42 36 -25 18 9 33 9 56 0 l32 -11 -5 33 c-4 25 1 38 20 59
l25 27 -35 6 c-22 4 -39 14 -42 25 -12 36 -29 40 -47 10z"/>
<path d="M10170 3580 c0 -5 5 -10 10 -10 6 0 10 5 10 10 0 6 -4 10 -10 10 -5
0 -10 -4 -10 -10z"/>
<path d="M1260 3520 c0 -5 5 -10 10 -10 6 0 10 5 10 10 0 6 -4 10 -10 10 -5 0
-10 -4 -10 -10z"/>
<path d="M1813 3460 c-1 -54 1 -65 6 -40 9 45 18 60 36 60 14 0 20 -14 28 -70
3 -15 5 -10 5 15 2 53 -9 69 -41 61 -22 -5 -26 -2 -30 21 -2 16 -4 -6 -4 -47z"/>
<path d="M3613 3513 c-4 -10 -11 -21 -17 -25 -7 -5 -7 -8 2 -8 7 0 13 -17 14
-47 l1 -48 4 45 c3 24 10 48 16 52 9 6 9 8 0 8 -20 0 -15 28 5 33 16 4 16 5
-1 6 -10 0 -21 -7 -24 -16z"/>
<path d="M3940 3506 c0 -19 -4 -23 -20 -19 -27 7 -50 -14 -50 -46 0 -30 16
-51 40 -50 9 0 6 4 -8 10 -19 7 -23 15 -20 41 2 28 7 33 28 33 22 0 25 -4 25
-37 0 -20 3 -40 8 -44 4 -4 7 25 7 64 0 40 -2 72 -5 72 -3 0 -5 -11 -5 -24z"/>
<path d="M5160 3520 c0 -5 5 -10 10 -10 6 0 10 5 10 10 0 6 -4 10 -10 10 -5 0
-10 -4 -10 -10z"/>
<path d="M6070 3506 c0 -19 -4 -23 -20 -19 -27 7 -50 -14 -50 -46 0 -30 16
-51 40 -50 9 0 6 4 -8 10 -19 7 -23 15 -20 41 2 28 7 33 28 33 22 0 25 -4 25
-37 0 -20 3 -40 8 -44 4 -4 7 25 7 64 0 40 -2 72 -5 72 -3 0 -5 -11 -5 -24z"/>
<path d="M6180 3506 c0 -19 -4 -23 -20 -19 -27 7 -50 -14 -50 -46 0 -30 16
-51 40 -50 9 0 6 4 -8 10 -19 7 -23 15 -20 41 2 28 7 33 28 33 22 0 25 -4 25
-37 0 -20 3 -40 8 -44 4 -4 7 25 7 64 0 40 -2 72 -5 72 -3 0 -5 -11 -5 -24z"/>
<path d="M810 3455 l0 -65 38 2 c36 1 36 1 5 5 -27 4 -33 9 -33 28 0 18 6 25
28 28 l27 4 -27 2 c-23 1 -28 6 -28 25 0 19 6 26 28 29 25 4 25 4 -5 6 l-33 1
0 -65z"/>
<path d="M1750 3505 c-7 -61 6 -115 26 -115 13 0 13 2 0 16 -22 21 -21 71 2
77 15 4 15 5 0 6 -9 0 -19 9 -21 19 -4 15 -5 14 -7 -3z"/>
<path d="M2071 3506 c-16 -19 -6 -38 30 -59 38 -21 33 -43 -10 -41 -17 1 -28
-2 -25 -7 8 -14 50 -10 64 6 16 20 6 43 -25 57 -34 15 -33 45 3 51 l27 4 -26
2 c-15 0 -32 -5 -38 -13z"/>
<path d="M2519 3505 c-2 -11 -2 -40 1 -65 4 -35 9 -45 25 -48 18 -2 18 -2 3 8
-12 7 -18 23 -18 45 0 24 5 35 18 38 15 4 15 5 0 6 -9 0 -18 9 -20 19 -3 15
-4 14 -9 -3z"/>
<path d="M2630 3455 l0 -65 38 1 c30 2 32 3 10 6 -27 4 -28 7 -28 64 0 33 -4
59 -10 59 -6 0 -10 -28 -10 -65z"/>
<path d="M3700 3517 c0 -15 48 -122 55 -120 10 2 57 114 50 121 -3 3 -12 -12
-20 -34 -9 -21 -19 -48 -24 -59 -7 -16 -11 -10 -26 38 -10 31 -22 57 -27 57
-4 0 -8 -1 -8 -3z"/>
<path d="M4284 3445 c-18 -41 -29 -75 -25 -75 3 0 20 34 38 75 17 41 28 75 25
75 -4 0 -21 -34 -38 -75z"/>
<path d="M4353 3455 c0 -38 2 -53 4 -32 2 20 2 52 0 70 -2 17 -4 1 -4 -38z"/>
<path d="M5030 3455 l0 -65 33 1 c23 1 26 3 10 6 -21 4 -23 10 -23 59 0 50 2
54 23 54 13 0 28 -5 35 -12 13 -13 16 -68 5 -84 -5 -5 0 -1 10 10 12 14 16 28
12 45 -8 34 -32 51 -72 51 l-33 0 0 -65z"/>
<path d="M5600 3505 c-7 -61 6 -115 26 -115 13 0 13 2 0 16 -22 21 -21 71 2
77 15 4 15 5 0 6 -9 0 -19 9 -21 19 -4 15 -5 14 -7 -3z"/>
<path d="M5820 3455 c0 -37 4 -65 10 -65 6 0 10 14 10 30 0 28 3 30 34 30 32
0 35 -3 39 -32 2 -18 4 -1 4 37 0 39 -2 55 -4 38 -4 -30 -7 -33 -39 -33 -31 0
-34 2 -34 30 0 17 -4 30 -10 30 -6 0 -10 -28 -10 -65z"/>
<path d="M6482 3453 l1 -68 6 55 6 55 26 -55 26 -55 24 55 24 55 6 -55 6 -55
1 68 c1 37 -2 67 -6 67 -4 0 -18 -24 -31 -52 l-23 -53 -26 53 c-14 28 -30 52
-34 52 -4 0 -7 -30 -6 -67z"/>
<path d="M906 3465 c15 -23 15 -27 0 -50 -9 -14 -12 -25 -7 -25 5 0 13 10 17
22 l7 22 17 -22 c25 -30 34 -28 14 3 -15 23 -15 27 0 50 9 14 12 25 7 25 -5 0
-13 -9 -16 -20 -3 -11 -10 -20 -15 -20 -5 0 -12 9 -15 20 -3 11 -11 20 -16 20
-5 0 -2 -11 7 -25z"/>
<path d="M991 3415 c1 -38 4 -58 6 -43 3 22 9 26 30 25 32 -2 56 34 43 67 -5
16 -16 21 -44 21 l-36 1 1 -71z m67 27 c2 -22 -2 -34 -12 -38 -34 -13 -61 37
-34 64 21 21 43 9 46 -26z"/>
<path d="M1106 3468 c-9 -13 -13 -33 -9 -46 6 -24 48 -41 64 -25 5 5 -2 9 -18
8 -18 0 -29 6 -31 18 -3 13 3 17 28 17 27 0 31 3 28 23 -4 31 -42 35 -62 5z
m52 -5 c2 -8 -6 -13 -22 -13 -25 0 -33 10 -19 24 10 10 36 3 41 -11z"/>
<path d="M1202 3435 c1 -46 2 -47 5 -10 2 22 11 45 20 52 13 10 13 12 -6 10
-19 -1 -21 -7 -19 -52z"/>
<path d="M1263 3440 c0 -30 2 -43 4 -27 2 15 2 39 0 55 -2 15 -4 2 -4 -28z"/>
<path d="M1308 3465 c-17 -38 3 -75 39 -74 21 1 23 3 8 6 -52 13 -59 43 -10
43 36 0 46 15 23 38 -20 20 -48 14 -60 -13z m60 -2 c2 -9 -7 -13 -28 -13 -28
0 -31 2 -20 15 15 18 41 16 48 -2z"/>
<path d="M1412 3436 l1 -51 6 45 c5 36 10 45 26 45 16 0 21 -9 26 -45 l7 -45
-2 50 c-1 49 -1 50 -33 51 l-33 1 2 -51z"/>
<path d="M1522 3478 c-7 -7 -12 -24 -12 -38 0 -32 17 -50 45 -49 17 1 16 2 -5
8 -20 6 -25 13 -25 41 0 28 5 35 25 41 21 6 22 7 5 8 -12 1 -26 -4 -33 -11z"/>
<path d="M1606 3468 c-9 -13 -13 -33 -9 -46 6 -24 48 -41 64 -25 5 5 -2 9 -18
8 -18 0 -29 6 -31 18 -3 13 3 17 28 17 27 0 31 3 28 23 -4 31 -42 35 -62 5z
m52 -5 c2 -8 -6 -13 -22 -13 -25 0 -33 10 -19 24 10 10 36 3 41 -11z"/>
<path d="M1918 3465 c-17 -38 3 -75 39 -74 21 1 23 3 8 6 -52 13 -59 43 -10
43 36 0 46 15 23 38 -20 20 -48 14 -60 -13z m60 -2 c2 -9 -7 -13 -28 -13 -28
0 -31 2 -20 15 15 18 41 16 48 -2z"/>
<path d="M2168 3465 c-17 -38 3 -75 39 -74 21 1 23 3 8 6 -52 13 -59 43 -10
43 36 0 46 15 23 38 -20 20 -48 14 -60 -13z m60 -2 c2 -9 -7 -13 -28 -13 -28
0 -31 2 -20 15 15 18 41 16 48 -2z"/>
<path d="M2276 3474 c-19 -18 -21 -55 -4 -72 7 -7 23 -12 38 -11 l25 1 -24 7
c-13 3 -29 14 -35 24 -14 22 2 49 35 58 23 7 23 7 2 8 -12 1 -29 -6 -37 -15z"/>
<path d="M2351 3435 l1 -50 8 39 c4 22 15 45 24 52 15 11 14 12 -8 10 -24 -1
-26 -4 -25 -51z"/>
<path d="M2418 3465 c-17 -38 3 -75 39 -74 21 1 23 3 8 6 -52 13 -59 43 -10
43 36 0 46 15 23 38 -20 20 -48 14 -60 -13z m60 -2 c2 -9 -7 -13 -28 -13 -28
0 -31 2 -20 15 15 18 41 16 48 -2z"/>
<path d="M2726 3482 c-3 -5 4 -8 16 -8 33 1 31 -18 -3 -31 -42 -16 -37 -48 9
-49 l33 -1 -3 46 c-3 38 -7 47 -25 49 -11 2 -24 -1 -27 -6z m44 -57 c0 -21
-28 -31 -43 -16 -9 9 -8 14 3 21 22 14 40 12 40 -5z"/>
<path d="M2811 3435 c1 -47 2 -48 8 -15 9 45 18 60 36 60 14 0 20 -14 28 -70
3 -15 5 -9 6 16 1 47 -12 63 -51 61 -27 -2 -28 -4 -27 -52z"/>
<path d="M2925 3466 c-12 -18 -13 -29 -5 -51 9 -24 14 -27 40 -21 17 3 30 2
30 -3 0 -16 -30 -33 -50 -28 -11 3 -20 1 -20 -4 0 -5 13 -9 30 -9 37 0 50 23
50 87 0 47 -1 49 -30 51 -21 2 -34 -4 -45 -22z m61 -12 c8 -30 -16 -60 -40
-51 -16 6 -23 57 -9 70 16 16 43 6 49 -19z"/>
<path d="M3032 3455 c-2 -52 7 -64 46 -63 32 1 32 2 32 50 0 59 -18 64 -22 6
-2 -35 -7 -43 -23 -43 -16 0 -21 9 -26 45 l-6 45 -1 -40z"/>
<path d="M3159 3482 c31 -9 40 -32 13 -32 -25 0 -46 -25 -38 -45 3 -10 16 -15
36 -13 30 2 31 4 28 48 -3 42 -5 45 -33 47 -27 2 -28 1 -6 -5z m31 -57 c0 -9
-7 -18 -16 -22 -18 -7 -39 11 -30 26 11 17 46 13 46 -4z"/>
<path d="M3242 3478 c-27 -27 -8 -89 28 -87 9 0 6 4 -8 10 -19 7 -23 15 -20
41 2 28 7 33 28 33 23 0 25 -4 26 -47 1 -59 -7 -72 -40 -66 -14 3 -23 1 -20
-3 8 -13 48 -11 62 3 7 7 12 37 12 68 0 54 -1 56 -28 58 -15 1 -33 -3 -40 -10z"/>
<path d="M3352 3478 c-7 -7 -12 -24 -12 -38 0 -14 5 -31 12 -38 14 -14 44 -16
52 -4 2 4 -7 8 -22 7 -17 0 -28 6 -30 18 -3 14 4 17 32 17 39 0 41 2 26 31
-12 21 -40 25 -58 7z m46 -15 c2 -8 -6 -13 -22 -13 -25 0 -33 10 -19 24 10 10
36 3 41 -11z"/>
<path d="M3502 3478 c-7 -7 -12 -24 -12 -38 0 -51 48 -68 75 -26 31 47 -24
103 -63 64z m53 -38 c0 -31 -3 -35 -25 -35 -19 0 -26 6 -28 23 -5 36 5 54 30
50 19 -2 23 -9 23 -38z"/>
<path d="M3833 3440 c0 -30 2 -43 4 -27 2 15 2 39 0 55 -2 15 -4 2 -4 -28z"/>
<path d="M3992 3478 c-7 -7 -12 -24 -12 -38 0 -14 5 -31 12 -38 14 -14 44 -16
52 -4 2 4 -7 8 -22 7 -17 0 -28 6 -30 18 -3 14 4 17 32 17 39 0 41 2 26 31
-12 21 -40 25 -58 7z m46 -15 c2 -8 -6 -13 -22 -13 -25 0 -33 10 -19 24 10 10
36 3 41 -11z"/>
<path d="M4092 3478 c-7 -7 -12 -24 -12 -38 0 -51 48 -68 75 -26 31 47 -24
103 -63 64z m53 -38 c0 -31 -3 -35 -25 -35 -19 0 -26 6 -28 23 -5 36 5 54 30
50 19 -2 23 -9 23 -38z"/>
<path d="M4197 3483 c-14 -13 -6 -42 13 -48 27 -9 25 -35 -2 -36 -18 -1 -19
-2 -5 -6 18 -5 47 12 47 28 0 5 -11 15 -25 21 -31 14 -32 35 -2 41 20 4 20 4
1 6 -11 0 -24 -2 -27 -6z"/>
<path d="M4402 3435 l1 -50 4 43 c7 74 51 67 54 -8 2 -32 2 -31 8 10 4 32 11
46 24 48 14 3 17 -4 17 -42 0 -25 5 -46 10 -46 15 0 12 64 -4 86 -13 16 -18
17 -35 7 -12 -8 -22 -9 -26 -3 -3 5 -17 9 -30 8 -23 -2 -25 -6 -23 -53z"/>
<path d="M4579 3482 c31 -9 40 -32 13 -32 -25 0 -46 -25 -38 -45 3 -10 16 -15
36 -13 30 2 31 4 28 48 -3 42 -5 45 -33 47 -27 2 -28 1 -6 -5z m31 -57 c0 -9
-7 -18 -16 -22 -18 -7 -39 11 -30 26 11 17 46 13 46 -4z"/>
<path d="M4655 3466 c-12 -18 -13 -29 -5 -51 9 -24 14 -27 40 -21 17 3 30 2
30 -3 0 -16 -30 -33 -50 -28 -11 3 -20 1 -20 -4 0 -5 13 -9 30 -9 37 0 50 23
50 87 0 47 -1 49 -30 51 -21 2 -34 -4 -45 -22z m61 -12 c8 -30 -16 -60 -40
-51 -16 6 -23 57 -9 70 16 16 43 6 49 -19z"/>
<path d="M4772 3478 c-7 -7 -12 -24 -12 -38 0 -14 5 -31 12 -38 14 -14 44 -16
52 -4 2 4 -7 8 -22 7 -17 0 -28 6 -30 18 -3 14 4 17 32 17 39 0 41 2 26 31
-12 21 -40 25 -58 7z m46 -15 c2 -8 -6 -13 -22 -13 -25 0 -33 10 -19 24 10 10
36 3 41 -11z"/>
<path d="M4867 3483 c-14 -13 -6 -42 13 -48 27 -9 25 -35 -2 -36 -18 -1 -19
-2 -5 -6 41 -11 57 39 16 52 -26 9 -24 33 4 38 20 4 20 4 1 6 -11 0 -24 -2
-27 -6z"/>
<path d="M5163 3440 c0 -30 2 -43 4 -27 2 15 2 39 0 55 -2 15 -4 2 -4 -28z"/>
<path d="M5205 3468 c9 -45 24 -80 34 -74 10 7 43 96 35 96 -3 0 -13 -19 -24
-42 -10 -24 -19 -36 -20 -28 0 8 -7 29 -16 45 -14 30 -14 30 -9 3z"/>
<path d="M5298 3465 c-17 -38 3 -75 39 -74 21 1 23 3 8 6 -52 13 -59 43 -10
43 36 0 46 15 23 38 -20 20 -48 14 -60 -13z m60 -2 c2 -9 -7 -13 -28 -13 -28
0 -31 2 -20 15 15 18 41 16 48 -2z"/>
<path d="M5453 3440 c0 -30 2 -43 4 -27 2 15 2 39 0 55 -2 15 -4 2 -4 -28z"/>
<path d="M5491 3435 c1 -47 2 -48 8 -15 9 45 18 60 36 60 14 0 20 -14 28 -70
3 -15 5 -9 6 16 1 47 -12 63 -51 61 -27 -2 -28 -4 -27 -52z"/>
<path d="M5672 3478 c-7 -7 -12 -24 -12 -38 0 -51 48 -68 75 -26 31 47 -24
103 -63 64z m53 -38 c0 -31 -3 -35 -25 -35 -19 0 -26 6 -28 23 -5 36 5 54 30
50 19 -2 23 -9 23 -38z"/>
<path d="M5963 3440 c0 -30 2 -43 4 -27 2 15 2 39 0 55 -2 15 -4 2 -4 -28z"/>
<path d="M6232 3478 c-7 -7 -12 -24 -12 -38 0 -14 5 -31 12 -38 14 -14 44 -16
52 -4 2 4 -7 8 -22 7 -17 0 -28 6 -30 18 -3 14 4 17 32 17 39 0 41 2 26 31
-12 21 -40 25 -58 7z m46 -15 c2 -8 -6 -13 -22 -13 -25 0 -33 10 -19 24 10 10
36 3 41 -11z"/>
<path d="M6321 3440 l2 -55 7 45 c4 25 4 49 -1 55 -5 5 -8 -13 -8 -45z"/>
<path d="M6362 3483 c11 -3 20 -18 23 -41 10 -57 13 -61 14 -16 1 42 -13 65
-38 63 -13 -1 -12 -2 1 -6z"/>
<path d="M6648 3465 c-17 -38 3 -75 39 -74 21 1 23 3 8 6 -52 13 -59 43 -10
43 36 0 46 15 23 38 -20 20 -48 14 -60 -13z m60 -2 c2 -9 -7 -13 -28 -13 -28
0 -31 2 -20 15 15 18 41 16 48 -2z"/>
<path d="M6753 3483 c-21 -8 -15 -30 13 -48 27 -17 24 -30 -11 -38 -15 -3 -13
-5 8 -6 41 -2 47 27 12 55 -22 17 -25 24 -15 28 43 13 45 14 25 14 -11 0 -26
-2 -32 -5z"/>
<path d="M6833 3483 c-21 -8 -15 -30 13 -48 27 -17 24 -30 -11 -38 -15 -3 -13
-5 8 -6 41 -2 47 27 12 55 -22 17 -25 24 -15 28 43 13 45 14 25 14 -11 0 -26
-2 -32 -5z"/>
<path d="M6906 3481 c-3 -4 5 -6 18 -4 14 3 25 -1 29 -10 4 -10 -3 -17 -24
-21 -25 -5 -30 -10 -27 -28 2 -18 9 -23 36 -23 30 -1 32 1 32 35 0 20 -5 41
-12 48 -14 14 -44 16 -52 3z m52 -53 c-6 -16 -36 -34 -44 -26 -3 4 -4 14 -1
23 7 17 51 21 45 3z"/>
<path d="M7005 3466 c-12 -18 -13 -29 -5 -51 9 -24 14 -27 40 -21 17 3 30 2
30 -3 0 -16 -30 -33 -50 -28 -11 3 -20 1 -20 -4 0 -5 13 -9 30 -9 37 0 50 23
50 87 0 47 -1 49 -30 51 -21 2 -34 -4 -45 -22z m61 -12 c8 -30 -16 -60 -40
-51 -16 6 -23 57 -9 70 16 16 43 6 49 -19z"/>
<path d="M7116 3468 c-9 -13 -13 -33 -9 -46 6 -24 48 -41 64 -25 5 5 -2 9 -18
8 -18 0 -29 6 -31 18 -3 13 3 17 28 17 27 0 31 3 28 23 -4 31 -42 35 -62 5z
m52 -5 c2 -8 -6 -13 -22 -13 -25 0 -33 10 -19 24 10 10 36 3 41 -11z"/>
<path d="M7209 3474 c-11 -14 -10 -18 6 -30 10 -8 22 -14 27 -14 4 0 8 -7 8
-16 0 -12 -7 -15 -25 -12 -14 3 -25 1 -25 -3 0 -5 11 -9 25 -9 39 0 44 29 10
56 -22 17 -25 24 -15 28 43 13 44 14 24 15 -12 1 -28 -6 -35 -15z"/>
<path d="M10714 3406 c-19 -19 -34 -41 -34 -50 0 -13 -6 -13 -40 5 -72 38
-151 1 -166 -77 -9 -47 1 -78 37 -119 l31 -35 -29 -10 c-81 -28 -129 -84 -139
-162 l-7 -48 213 0 213 0 -7 50 -7 50 66 0 c101 0 105 4 105 110 0 79 -2 91
-20 100 -17 9 -20 21 -20 76 0 103 -34 144 -121 144 -33 0 -48 -7 -75 -34z
m145 -22 c17 -21 21 -41 21 -95 l0 -69 -86 0 -86 0 4 76 c3 65 7 79 27 95 36
29 95 25 120 -7z"/>
<path d="M2620 3135 c0 -69 3 -85 15 -85 11 0 15 11 15 40 0 28 5 43 16 47 21
8 34 -13 34 -54 0 -23 5 -33 15 -33 20 0 21 79 1 105 -12 17 -18 18 -40 7 -25
-11 -26 -11 -26 23 0 24 -5 35 -15 35 -12 0 -15 -16 -15 -85z"/>
<path d="M1227 3197 c-27 -19 -18 -57 17 -76 34 -20 31 -36 -7 -36 -37 0 -32
-29 5 -33 68 -8 93 55 34 87 -39 22 -38 35 2 39 20 2 32 8 29 15 -5 17 -59 20
-80 4z"/>
<path d="M16290 3200 c0 -6 40 -10 101 -10 64 0 98 4 94 10 -3 6 -48 10 -101
10 -56 0 -94 -4 -94 -10z"/>
<path d="M1337 3178 c-6 -24 5 -97 17 -116 10 -17 46 -15 46 3 0 8 -4 15 -10
15 -5 0 -10 14 -10 30 0 17 5 30 10 30 6 0 10 7 10 15 0 8 -4 15 -10 15 -5 0
-10 7 -10 15 0 24 -37 18 -43 -7z"/>
<path d="M1053 3120 c-1 -54 1 -65 6 -40 9 45 18 60 36 60 14 0 20 -14 28 -70
3 -15 5 -10 5 15 2 53 -9 69 -41 61 -22 -5 -26 -2 -30 21 -2 16 -4 -6 -4 -47z"/>
<path d="M1001 3168 c-1 -10 -7 -18 -13 -18 -10 0 -10 -2 -1 -8 6 -4 13 -25
15 -46 2 -22 9 -41 16 -42 7 -1 8 0 2 3 -15 7 -13 83 3 83 8 0 9 3 1 8 -6 4
-14 14 -17 22 -4 12 -6 11 -6 -2z"/>
<path d="M2893 3135 c0 -27 2 -38 4 -22 2 15 2 37 0 50 -2 12 -4 0 -4 -28z"/>
<path d="M1437 3152 c-45 -50 5 -120 67 -96 26 10 18 24 -13 24 -17 0 -33 5
-36 10 -4 6 10 10 34 10 45 0 51 11 25 48 -18 27 -55 29 -77 4z m57 -17 c4
-11 -1 -15 -19 -15 -24 0 -32 10 -18 23 11 12 31 8 37 -8z"/>
<path d="M1564 3156 c-11 -8 -14 -24 -12 -50 4 -48 28 -67 59 -48 18 12 20 11
17 -5 -2 -12 -14 -19 -36 -21 -20 -2 -32 -9 -32 -18 0 -19 49 -18 78 2 19 13
22 24 22 83 l0 68 -40 0 c-22 0 -47 -5 -56 -11z m61 -46 c0 -16 -6 -26 -18
-28 -19 -4 -32 20 -23 44 9 25 41 13 41 -16z"/>
<path d="M1705 3160 c-3 -6 5 -10 19 -10 38 0 41 -18 4 -28 -25 -6 -34 -14
-36 -34 -4 -31 29 -48 53 -28 11 9 15 9 15 1 0 -6 7 -11 15 -11 21 0 21 83 -1
104 -17 18 -60 21 -69 6z m55 -60 c0 -12 -28 -25 -36 -17 -9 9 6 27 22 27 8 0
14 -5 14 -10z"/>
<path d="M1830 3110 c0 -46 3 -60 14 -60 10 0 16 14 18 42 2 31 8 44 21 46 14
3 17 -4 17 -42 0 -34 4 -46 15 -46 11 0 15 12 15 49 0 58 -20 82 -51 63 -11
-7 -19 -8 -19 -2 0 5 -7 10 -15 10 -12 0 -15 -13 -15 -60z"/>
<path d="M1982 3154 c-43 -30 -17 -104 36 -104 28 0 62 34 62 60 0 25 -34 60
-58 60 -10 0 -28 -7 -40 -16z m63 -24 c11 -18 -6 -50 -26 -50 -22 0 -34 22
-25 45 6 17 42 20 51 5z"/>
<path d="M2127 3159 c-24 -14 -30 -58 -12 -85 17 -26 44 -31 63 -12 7 7 12 8
12 2 0 -19 -24 -34 -53 -34 -39 0 -30 -24 11 -28 51 -5 72 25 72 102 l0 63
-39 0 c-21 0 -45 -4 -54 -8z m58 -49 c0 -18 -6 -26 -22 -28 -18 -3 -23 1 -23
21 0 28 9 39 30 35 9 -2 15 -14 15 -28z"/>
<path d="M2260 3110 c0 -47 3 -60 15 -60 11 0 15 11 15 41 0 32 4 42 20 46 11
3 20 12 20 19 0 17 -12 18 -28 2 -9 -9 -12 -9 -12 0 0 7 -7 12 -15 12 -12 0
-15 -13 -15 -60z"/>
<path d="M2355 3160 c-3 -6 5 -10 19 -10 38 0 41 -18 4 -28 -25 -6 -34 -14
-36 -34 -4 -31 29 -48 53 -28 11 9 15 9 15 1 0 -6 7 -11 15 -11 21 0 21 83 -1
104 -17 18 -60 21 -69 6z m55 -60 c0 -12 -28 -25 -36 -17 -9 9 6 27 22 27 8 0
14 -5 14 -10z"/>
<path d="M2470 3085 c0 -69 3 -85 15 -85 11 0 15 11 15 37 0 29 3 34 12 25 19
-19 45 -14 62 10 21 30 20 51 -3 79 -16 21 -22 22 -45 11 -15 -7 -26 -8 -26
-2 0 6 -7 10 -15 10 -12 0 -15 -16 -15 -85z m84 40 c8 -22 -4 -45 -24 -45 -20
0 -32 23 -24 45 4 8 14 15 24 15 10 0 20 -7 24 -15z"/>
<path d="M2750 3166 c0 -3 9 -29 20 -57 22 -55 21 -79 -5 -79 -8 0 -15 -7 -15
-15 0 -21 34 -19 52 3 14 16 58 124 58 143 0 5 -6 9 -13 9 -8 0 -20 -19 -27
-42 l-13 -43 -12 40 c-7 23 -19 41 -28 43 -10 2 -17 1 -17 -2z"/>
<path d="M801 3147 c-2 -17 22 -97 29 -97 10 0 23 50 15 58 -3 3 -5 -2 -5 -11
0 -30 -16 -18 -27 21 -6 20 -11 33 -12 29z"/>
<path d="M850 3135 c0 -8 4 -15 9 -15 5 0 12 -16 15 -35 4 -19 11 -35 15 -35
10 0 35 90 27 97 -3 3 -8 -11 -11 -31 -9 -46 -21 -46 -29 -1 -7 34 -26 49 -26
20z"/>
<path d="M953 3100 c0 -30 2 -43 4 -27 2 15 2 39 0 55 -2 15 -4 2 -4 -28z"/>
<path d="M16244 3113 c5 -34 46 -397 46 -415 0 -5 160 -8 355 -8 l355 0 4 23
c3 12 10 90 16 172 6 83 13 176 17 208 l6 57 -403 0 -403 0 7 -37z"/>
<path d="M11569 2904 c-14 -9 -34 -30 -45 -46 -14 -21 -25 -27 -40 -23 -27 6
-42 -24 -21 -40 7 -5 18 -23 24 -40 9 -29 10 -29 17 -7 8 25 26 30 26 7 0 -15
26 -21 32 -7 2 4 21 17 43 27 37 18 43 19 72 5 26 -12 33 -21 33 -46 0 -17 8
-38 19 -48 11 -10 22 -29 25 -42 9 -33 30 -25 34 12 2 16 10 48 18 72 18 56
18 99 -2 110 -8 5 -21 19 -27 33 -20 39 -163 62 -208 33z"/>
<path d="M11658 2753 c7 -3 16 -2 19 1 4 3 -2 6 -13 5 -11 0 -14 -3 -6 -6z"/>
<path d="M11530 2700 c0 -5 5 -10 10 -10 6 0 10 5 10 10 0 6 -4 10 -10 10 -5
0 -10 -4 -10 -10z"/>
<path d="M11645 2701 c-3 -5 -1 -12 5 -16 5 -3 10 1 10 9 0 18 -6 21 -15 7z"/>
<path d="M1780 2272 c0 -24 -4 -27 -32 -27 -26 0 -35 -6 -47 -29 -12 -26 -12
-33 0 -55 13 -22 22 -26 67 -28 l52 -2 0 84 c0 78 -2 85 -20 85 -15 0 -20 -7
-20 -28z m-5 -82 c0 -13 -6 -25 -12 -27 -16 -6 -27 21 -19 43 9 23 31 11 31
-16z"/>
<path d="M2195 2290 c-4 -7 -3 -16 3 -22 14 -14 45 -2 40 15 -6 16 -34 21 -43
7z"/>
<path d="M2340 2272 c0 -24 -4 -27 -32 -27 -26 0 -35 -6 -47 -29 -12 -26 -12
-33 0 -55 13 -22 22 -26 67 -28 l52 -2 0 84 c0 78 -2 85 -20 85 -15 0 -20 -7
-20 -28z m-5 -82 c0 -13 -6 -25 -12 -27 -16 -6 -27 21 -19 43 9 23 31 11 31
-16z"/>
<path d="M4170 2271 c0 -24 -3 -28 -20 -24 -43 11 -77 -55 -51 -96 6 -9 30
-16 60 -18 l51 -3 0 85 c0 78 -2 85 -20 85 -15 0 -20 -7 -20 -29z m-2 -78 c-3
-31 -32 -43 -41 -18 -9 23 3 45 25 45 15 0 19 -6 16 -27z"/>
<path d="M1180 2210 l0 -80 50 0 c38 0 50 4 50 15 0 10 -10 15 -30 15 -23 0
-30 4 -30 20 0 16 7 20 30 20 20 0 30 5 30 15 0 10 -10 15 -30 15 -20 0 -30 5
-30 15 0 10 10 15 30 15 20 0 30 5 30 15 0 11 -12 15 -50 15 l-50 0 0 -80z"/>
<path d="M2030 2282 c0 -4 11 -39 23 -78 20 -59 27 -69 49 -72 24 -3 28 2 48
65 13 37 25 74 28 81 3 10 -2 13 -19 10 -19 -2 -27 -14 -40 -58 l-16 -54 -17
57 c-13 44 -21 57 -36 57 -11 0 -20 -4 -20 -8z"/>
<path d="M3580 2210 l0 -80 45 0 c33 0 45 4 45 15 0 10 -10 15 -30 15 -23 0
-30 4 -30 20 0 16 7 20 30 20 20 0 30 5 30 15 0 10 -10 15 -30 15 -20 0 -30 5
-30 15 0 10 10 15 30 15 20 0 30 5 30 15 0 11 -12 15 -45 15 l-45 0 0 -80z"/>
<path d="M4440 2210 c0 -64 3 -80 15 -80 12 0 15 16 15 80 0 64 -3 80 -15 80
-12 0 -15 -16 -15 -80z"/>
<path d="M1300 2189 c0 -52 2 -59 20 -59 16 0 20 7 20 33 0 17 4 38 9 46 15
23 31 2 31 -40 0 -32 3 -39 20 -39 17 0 20 7 20 49 0 27 -6 53 -12 58 -7 6
-34 11 -60 11 l-48 0 0 -59z"/>
<path d="M1457 2232 c-39 -42 -8 -102 51 -102 26 0 32 4 32 21 0 15 -5 19 -15
15 -22 -8 -45 4 -45 24 0 20 23 32 45 24 10 -4 15 0 15 15 0 17 -6 21 -33 21
-20 0 -41 -8 -50 -18z"/>
<path d="M1567 2232 c-38 -42 -8 -102 50 -102 55 0 85 67 45 103 -25 22 -75
21 -95 -1z m68 -42 c0 -15 -6 -26 -16 -28 -19 -3 -31 21 -22 43 9 25 38 13 38
-15z"/>
<path d="M1857 2232 c-22 -24 -22 -66 -1 -87 22 -22 88 -17 92 7 3 15 -2 17
-26 12 -17 -4 -32 -1 -36 5 -5 7 6 11 33 11 45 0 51 11 25 48 -19 27 -64 29
-87 4z m57 -17 c4 -10 -1 -15 -14 -15 -20 0 -26 11 -13 23 10 11 20 8 27 -8z"/>
<path d="M2190 2190 c0 -53 2 -60 20 -60 18 0 20 7 20 60 0 53 -2 60 -20 60
-18 0 -20 -7 -20 -60z"/>
<path d="M2417 2232 c-22 -24 -22 -66 -1 -87 22 -22 88 -17 92 7 3 15 -2 17
-26 12 -17 -4 -32 -1 -36 5 -5 7 6 11 33 11 45 0 51 11 25 48 -19 27 -64 29
-87 4z m57 -17 c4 -10 -1 -15 -14 -15 -20 0 -26 11 -13 23 10 11 20 8 27 -8z"/>
<path d="M2546 2234 c-23 -22 -21 -81 3 -94 51 -27 104 -1 104 50 0 38 -23 60
-64 60 -15 0 -35 -7 -43 -16z m59 -44 c0 -27 -22 -39 -31 -16 -8 22 3 49 19
43 6 -2 12 -14 12 -27z"/>
<path d="M3700 2190 c0 -46 3 -60 14 -60 10 0 16 14 18 42 2 31 8 44 21 46 14
3 17 -4 17 -42 0 -40 3 -46 21 -46 18 0 20 5 17 51 -3 60 -24 82 -58 61 -12
-7 -20 -8 -20 -2 0 5 -7 10 -15 10 -12 0 -15 -13 -15 -60z"/>
<path d="M3864 2243 c-23 -16 -34 -51 -24 -77 10 -26 48 -43 75 -32 26 10 17
32 -12 31 -23 0 -28 4 -28 25 0 21 5 25 28 25 20 -1 27 4 25 15 -3 16 -46 25
-64 13z"/>
<path d="M3967 2232 c-53 -58 28 -137 83 -82 27 27 26 65 -2 84 -30 21 -61 20
-81 -2z m67 -27 c8 -23 -4 -45 -25 -45 -11 0 -22 7 -25 15 -9 23 3 45 25 45
10 0 21 -7 25 -15z"/>
<path d="M4264 2242 c-23 -15 -34 -50 -24 -76 10 -26 48 -43 75 -32 24 9 18
26 -9 26 -14 0 -28 5 -31 10 -4 6 8 10 29 10 32 0 36 3 36 25 0 34 -46 57 -76
37z m46 -27 c0 -8 -9 -15 -20 -15 -20 0 -26 11 -13 23 12 13 33 7 33 -8z"/>
<path d="M4510 2190 c0 -46 3 -60 14 -60 10 0 16 14 18 43 2 29 8 42 18 42 10
0 16 -13 18 -42 4 -59 30 -59 34 -1 2 31 8 44 21 46 14 3 17 -4 17 -42 0 -34
4 -46 15 -46 12 0 15 13 15 55 0 60 -16 78 -49 58 -12 -8 -23 -8 -36 -1 -13 8
-24 7 -37 -1 -11 -7 -18 -7 -18 -1 0 5 -7 10 -15 10 -12 0 -15 -13 -15 -60z"/>
<path d="M4733 2243 c-24 -9 -13 -20 17 -15 39 6 39 -13 0 -27 -61 -21 -47
-68 20 -68 l40 0 0 46 c0 26 -5 52 -12 59 -12 12 -43 15 -65 5z m47 -68 c0 -8
-6 -15 -14 -15 -17 0 -28 14 -19 24 12 12 33 6 33 -9z"/>
<path d="M4856 2231 c-36 -40 -7 -108 41 -96 18 4 24 2 21 -7 -3 -7 -19 -13
-37 -13 -42 0 -38 -29 4 -33 52 -5 69 17 73 96 l4 70 -45 0 c-31 0 -51 -5 -61
-17z m62 -38 c-3 -31 -32 -43 -41 -18 -9 23 3 45 25 45 15 0 19 -6 16 -27z"/>
<path d="M5007 2232 c-46 -51 3 -121 67 -96 26 10 18 24 -13 24 -17 0 -33 5
-36 10 -4 6 10 10 34 10 45 0 51 11 25 48 -18 27 -55 29 -77 4z m53 -17 c0 -8
-9 -15 -20 -15 -20 0 -26 11 -13 23 12 13 33 7 33 -8z"/>
<path d="M10677 1876 c-7 -18 1 -26 25 -26 13 0 18 6 16 17 -4 22 -34 29 -41
9z"/>
<path d="M16341 1837 c-43 -53 -57 -205 -22 -248 18 -22 20 -22 44 -6 45 30
68 189 34 241 -19 29 -39 33 -56 13z"/>
<path d="M11403 1798 c-16 -21 -22 -58 -10 -58 6 0 47 8 90 17 l78 17 -33 17
c-38 21 -111 25 -125 7z"/>
<path d="M16083 1743 c-30 -11 -13 -59 47 -132 42 -52 81 -74 115 -65 22 5 25
12 25 50 0 34 -6 51 -30 78 -41 46 -123 82 -157 69z"/>
<path d="M11449 1624 c50 -23 157 -28 211 -11 l45 15 -51 1 c-28 1 -93 3 -145
6 -92 5 -93 5 -60 -11z"/>
<path d="M16400 1463 c-24 -9 -40 -35 -40 -65 0 -34 28 -38 55 -8 12 13 31 20
54 20 49 0 69 14 55 37 -11 18 -91 29 -124 16z"/>
</g>
</svg>
